<svg xmlns="http://www.w3.org/2000/svg" viewBox="0 0 760 260" width="100%" role="img" aria-label="Zielgruppen & Rollen">
  <style>
    .col{fill:#fff;stroke:#d9d4cc;stroke-width:1.5}
    .head{font:700 14px system-ui,sans-serif;fill:#fff;text-anchor:middle}
    .li{font:12px system-ui,sans-serif;fill:#3a3730}
    .cap{fill:#1F1F24}
  </style>
  <g>
    <rect class="col cap" x="20"  y="20" width="170" height="34" rx="8"/><text class="head" x="105" y="42">Entwickler</text>
    <rect class="col"     x="20"  y="58" width="170" height="180" rx="8"/>
    <text class="li" x="34" y="84">• Architektur & Module</text><text class="li" x="34" y="106">• API / OpenAPI</text><text class="li" x="34" y="128">• Datenmodell</text><text class="li" x="34" y="150">• Setup & Tests</text><text class="li" x="34" y="172">• Webhooks/Events</text><text class="li" x="34" y="194">• Observability</text>

    <rect class="col cap" x="205" y="20" width="170" height="34" rx="8"/><text class="head" x="290" y="42">Admin WMS</text>
    <rect class="col"     x="205" y="58" width="170" height="180" rx="8"/>
    <text class="li" x="219" y="84">• Deployment/Config</text><text class="li" x="219" y="106">• Rechte-Katalog</text><text class="li" x="219" y="128">• Bereiche & Tags</text><text class="li" x="219" y="150">• Strategien</text><text class="li" x="219" y="172">• Metriken/Alerts</text><text class="li" x="219" y="194">• Webhooks</text>

    <rect class="col cap" x="390" y="20" width="170" height="34" rx="8"/><text class="head" x="475" y="42">Mandanten-Admin</text>
    <rect class="col"     x="390" y="58" width="170" height="180" rx="8"/>
    <text class="li" x="404" y="84">• Benutzer & Rollen</text><text class="li" x="404" y="106">• API-Keys</text><text class="li" x="404" y="128">• Tarife/Abrechnung</text><text class="li" x="404" y="150">• Artikel-Policies</text><text class="li" x="404" y="172">• Lagerplatz-Setup</text><text class="li" x="404" y="194">• Tags</text>

    <rect class="col cap" x="575" y="20" width="170" height="34" rx="8"/><text class="head" x="660" y="42">Operativ</text>
    <rect class="col"     x="575" y="58" width="170" height="180" rx="8"/>
    <text class="li" x="589" y="84">• Wareneingang</text><text class="li" x="589" y="106">• Einlagern/Umlagern</text><text class="li" x="589" y="128">• Kommissionieren</text><text class="li" x="589" y="150">• Packen/Versenden</text><text class="li" x="589" y="172">• Retouren/Q-Halt</text><text class="li" x="589" y="194">• Inventur</text>
  </g>
</svg>
